<svg xmlns="http://www.w3.org/2000/svg" height="480" width="640">
<path style="fill:#fbfbfb; stroke:none;" d="M0 0L0 118L1 118C3.94396 103.962 15.2304 92.8838 29 89.1589C37.8345 86.7691 47.9178 88 57 88L109 88L414 88C444.728 88 502.335 76.6818 511 118L512 118L512 0L0 0z"/>
<path style="fill:#ff4b55; stroke:none;" d="M0 200L512 200L512 139C512 122.973 512.346 108.145 498.91 96.8194C487.227 86.9705 473.285 88 459 88L389 88L119 88L53 88C39.5946 88 26.4562 86.9109 15.0147 95.3009C-0.068121 106.361 0 122.141 0 139L0 200z"/>
<path style="fill:#fbfbfb; stroke:none;" d="M0 200L0 312L512 312L512 200L0 200z"/>
<path style="fill:#f1c82a; stroke:none;" d="M238 221L247 221L245 235C240.912 234.065 235.085 231.277 231.148 233.832C226.959 236.55 228 242.734 228 247L228 285L239 275C236.875 281.53 236.045 290.379 228 291L228 300L284 300L284 291C275.955 290.379 275.125 281.53 273 275L284 285L284 248C284 243.84 285.118 237.602 281.682 234.473C277.965 231.088 272.075 233.706 268 235C266.956 229.457 266.647 222.786 263.297 218.044C255.878 207.542 243.371 211.671 238 221z"/>
<path style="fill:#f4e6b1; stroke:none;" d="M255.667 212.333L256.333 212.667L255.667 212.333M243 213L244 214L243 213M258 213L259 214L258 213M242 214L243 215L242 214M260 214L261 215L260 214M241 215L242 216L241 215M261 215L262 216L261 215M262 216L263 217L262 216M263 217L264 218L263 217M239 218L240 219L239 218M238 219L239 220L238 219M264 219L265 220L264 219M237 220L247 222L247 221L237 220M265.333 221.667L265.667 222.333L265.333 221.667M246 223L246 226L247 226L246 223M266 224L266 227L267 227L266 224M245 228L245 231L246 231L245 228M267 230L267 233L268 233L267 230M232 232L233 233L232 232M234 232L234 233L237 233L234 232M275 232L275 233L278 233L275 232M279 232L280 233L279 232M230 233L231 234L230 233M239 233L240 234L239 233M244.333 233.667L244.667 234.333L244.333 233.667M272 233L273 234L272 233M281 233L282 234L281 233M229 234L230 235L229 234M242 234L243 235L242 234M269 234L270 235L269 234M282 234L283 235L282 234M228 235L229 236L228 235M283 235L284 236L283 235z"/>
<path style="fill:#fbfbfb; stroke:none;" d="M255 237L242 246C243.631 252.77 245.906 271.793 256 271.793C266.094 271.793 268.369 252.77 270 246L257 237L255 237z"/>
<path style="fill:#f4e6b1; stroke:none;" d="M227 238L227 273L229 286L227 238M254 238L255 239L254 238M257 238L258 239L257 238M284 238L283 286L285 274L284 238M253 239L254 240L253 239M258 239L259 240L258 239M252 240L253 241L252 240M259 240L260 241L259 240M249 242L250 243L249 242M262 242L263 243L262 242M247 243L248 244L247 243M264 243L265 244L264 243M245 244L246 245L245 244M266 244L267 245L266 244M242.667 245.333L243.333 245.667L242.667 245.333M268.667 245.333L269.333 245.667L268.667 245.333M242 247L242 253L243 253L242 247M269 247L269 253L270 253L269 247M243.333 254.667L243.667 255.333L243.333 254.667M268.333 254.667L268.667 255.333L268.333 254.667M244 258L245 259L244 258M267 258L268 259L267 258M245 260L246 261L245 260M266 260L267 261L266 260M246 262L247 263L246 262M265 262L266 263L265 262M247 264L248 265L247 264M264 264L265 265L264 264M248 265L249 266L248 265M263 265L264 266L263 265M250 268L251 269L250 268M261 268L262 269L261 268M251 269L252 270L251 269M260 269L261 270L260 269M252 270L253 271L252 270M259 270L260 271L259 270M253 271L254 272L253 271M258 271L259 272L258 271M254 272L255 273L254 272M257 272L258 273L257 272M238 275L237 277L239 277L238 275M273 275L273 277L275 277L273 275M236 277L237 278L236 277M249 277L248 279L249 277M262 277L264 279L262 277M275 277L276 278L275 277M235 278L236 279L235 278z"/>
<path style="fill:#fbfbfb; stroke:none;" d="M249 278L245 290L251 290L249 278M262 278L261 290L267 290L262 278z"/>
<path style="fill:#f4e6b1; stroke:none;" d="M276 278L277 279L276 278M234 279L235 280L234 279M237 279L238 280L237 279M274 279L275 280L274 279M277 279L278 280L277 279M233 280L234 281L233 280M247.333 280.667L247.667 281.333L247.333 280.667M264.333 280.667L264.667 281.333L264.333 280.667M278 280L279 281L278 280M232 281L233 282L232 281M279 281L280 282L279 281M231 282L232 283L231 282M236 282L237 283L236 282M275 282L276 283L275 282M280 282L281 283L280 282M230 283L231 284L230 283M246 283L247 284L246 283M265 283L266 284L265 283M281 283L282 284L281 283M229 284L230 285L229 284M282 284L283 285L282 284M235 285L236 286L235 285M276 285L277 286L276 285M245 286L246 287L245 286M266 286L267 287L266 286M234 288L235 289L234 288M244 288C244.796 291.716 247.637 291 251 291L251 290L244 288M267 288L261 290L261 291C263.535 290.99 268.356 291.598 267 288M277 288L278 289L277 288M228 290L228 291L234 291L228 290M278 290L278 291L284 291L278 290M227 291L227 300L228 300L227 291M284 291L284 300L285 300L284 291z"/>
<path style="fill:#474755; stroke:none;" d="M0 312L0 373C0 389.027 -0.345953 403.855 13.0895 415.181C24.7733 425.03 38.7154 424 53 424L123 424L393 424L459 424C472.405 424 485.544 425.089 496.985 416.699C512.068 405.639 512 389.859 512 373L512 312L0 312z"/>
<path style="fill:#fbfbfb; stroke:none;" d="M0 394L0 512L512 512L512 394L511 394C508.056 408.038 496.77 419.116 483 422.841C473.292 425.467 461.988 424 452 424L395 424L110 424L53 424C40.2743 424 28.0785 424.883 17.0008 417.402C7.80876 411.194 5.3817 402.795 0 394z"/>
</svg>
