<svg width="150" height="79" viewBox="0 0 150 79" fill="none" xmlns="http://www.w3.org/2000/svg">
<path d="M13.82 23.6C17.66 23.6 20.7 24.48 22.94 26.24C25.18 27.96 26.3 30.28 26.3 33.2C26.3 37.88 24.38 41.14 20.54 42.98C25.74 44.78 28.34 48.1 28.34 52.94C28.34 56.58 26.78 59.62 23.66 62.06C20.54 64.46 16.62 65.66 11.9 65.66C9.42 65.66 5.72 65.44 0.8 65L1.52 50.42L0.8 23.6H13.82ZM13.04 47.18H8.18L8.12 49.4L8.54 59.18C10.86 59.38 12.64 59.48 13.88 59.48C16 59.48 17.64 58.96 18.8 57.92C20 56.84 20.6 55.28 20.6 53.24C20.6 51.2 20 49.68 18.8 48.68C17.6 47.68 15.68 47.18 13.04 47.18ZM11.66 29.66H8.72L8.36 41.36H12.26C14.3 41.36 15.86 40.82 16.94 39.74C18.02 38.62 18.56 37.04 18.56 35C18.56 31.44 16.26 29.66 11.66 29.66ZM45.0847 58.88C46.2447 58.88 47.4647 58.58 48.7447 57.98C50.0247 57.38 51.0247 56.78 51.7447 56.18L52.8247 55.28L55.5847 58.64C55.1847 59.32 54.5647 60.1 53.7247 60.98C52.8847 61.86 52.0247 62.62 51.1447 63.26C50.3047 63.86 49.1647 64.42 47.7247 64.94C46.3247 65.42 44.8647 65.66 43.3447 65.66C40.1047 65.66 37.4647 64.44 35.4247 62C33.3847 59.52 32.3647 56.34 32.3647 52.46C32.3647 47.58 33.7847 43.3 36.6247 39.62C39.4647 35.94 42.7847 34.1 46.5847 34.1C49.5047 34.1 51.7647 34.92 53.3647 36.56C55.0047 38.2 55.8247 40.5 55.8247 43.46C55.8247 45.22 55.5247 47.22 54.9247 49.46L53.7247 50.72L38.7247 52.1C39.4047 56.62 41.5247 58.88 45.0847 58.88ZM45.0847 40.28C43.3247 40.28 41.8447 41 40.6447 42.44C39.4447 43.84 38.7447 45.64 38.5447 47.84L48.7447 46.58C48.8647 45.66 48.9247 44.9 48.9247 44.3C48.9247 41.62 47.6447 40.28 45.0847 40.28ZM118.11 18.56L117.33 49.4L117.99 63.5L109.89 65L110.61 50.42L109.89 20.06L118.11 18.56ZM125.906 76.58L132.086 62.72L127.646 50.6L121.586 36.02L129.566 34.52L133.406 47.3L135.386 53.36H136.166L137.606 48.98L141.926 34.46L149.306 35.36L138.686 63.26L133.646 78.2L125.906 76.58Z" fill="#1CA499"/>
<path d="M63.682 3C69.282 0.999997 74.8487 -3.57628e-06 80.382 -3.57628e-06C85.9154 -3.57628e-06 90.4487 1.4 93.982 4.2C97.5154 7 99.282 10.5333 99.282 14.8C99.282 18.1333 98.4154 21.0667 96.682 23.6C94.9487 26.0667 92.482 27.9333 89.282 29.2C93.9487 30.9333 97.3154 33.1 99.382 35.7C101.449 38.2333 102.482 41.4667 102.482 45.4C102.482 51.4 100.149 56.3667 95.482 60.3C90.882 64.1667 85.0154 66.1 77.882 66.1C74.482 66.1 71.1487 65.6667 67.882 64.8C64.682 63.8667 62.3154 62.9333 60.782 62L58.482 60.6L62.682 48.5C63.282 49.0333 64.082 49.7 65.082 50.5C66.082 51.3 67.982 52.4 70.782 53.8C73.6487 55.1333 76.5154 55.8 79.382 55.8C82.2487 55.8 84.7487 55.0333 86.882 53.5C89.0154 51.9 90.082 49.6667 90.082 46.8C90.082 43.9333 88.8154 41.5667 86.282 39.7C83.8154 37.8333 80.382 36.9 75.982 36.9H67.382L69.182 27.2H74.682C78.3487 27.2 81.2154 26.3667 83.282 24.7C85.3487 23.0333 86.382 20.9 86.382 18.3C86.382 15.7 85.5154 13.7 83.782 12.3C82.0487 10.8333 79.9487 10.1 77.482 10.1C75.082 10.1 72.582 10.5333 69.982 11.4C67.4487 12.2 64.6487 13.4333 61.582 15.1L63.682 3Z" fill="#1E1E1E"/>
</svg>
